# Tiled2Unity generated file. Do not modify by hand.
# Wavefront file for 'example_map_mesh_0005.obj'

# Vertices (Count = 88)
v -2352 -864 0
v -2368 -864 0
v -2368 -848 0
v -2352 -848 0
v -2256 -960 0
v -2272 -960 0
v -2272 -944 0
v -2256 -944 0
v -2016 -1024 0
v -2032 -1024 0
v -2032 -1008 0
v -2016 -1008 0
v -2176 -1040 0
v -2192 -1040 0
v -2192 -1024 0
v -2176 -1024 0
v -2112 -1104 0
v -2128 -1104 0
v -2128 -1088 0
v -2112 -1088 0
v -2032 -1184 0
v -2048 -1184 0
v -2048 -1168 0
v -2032 -1168 0
v -1984 -1232 0
v -2000 -1232 0
v -2000 -1216 0
v -1984 -1216 0
v -896 -1280 0
v -912 -1280 0
v -912 -1264 0
v -896 -1264 0
v -912 -1280 0
v -928 -1280 0
v -928 -1264 0
v -912 -1264 0
v -1936 -1280 0
v -1952 -1280 0
v -1952 -1264 0
v -1936 -1264 0
v -832 -1328 0
v -848 -1328 0
v -848 -1312 0
v -832 -1312 0
v -848 -1328 0
v -864 -1328 0
v -864 -1312 0
v -848 -1312 0
v -1888 -1328 0
v -1904 -1328 0
v -1904 -1312 0
v -1888 -1312 0
v -1456 -1360 0
v -1472 -1360 0
v -1472 -1344 0
v -1456 -1344 0
v -1552 -1360 0
v -1568 -1360 0
v -1568 -1344 0
v -1552 -1344 0
v -240 -1376 0
v -256 -1376 0
v -256 -1360 0
v -240 -1360 0
v -448 -1376 0
v -464 -1376 0
v -464 -1360 0
v -448 -1360 0
v -464 -1376 0
v -480 -1376 0
v -480 -1360 0
v -464 -1360 0
v -480 -1376 0
v -496 -1376 0
v -496 -1360 0
v -480 -1360 0
v -784 -1376 0
v -800 -1376 0
v -800 -1360 0
v -784 -1360 0
v -1632 -1376 0
v -1648 -1376 0
v -1648 -1360 0
v -1632 -1360 0
v -1648 -1376 0
v -1664 -1376 0
v -1664 -1360 0
v -1648 -1360 0

# Texture cooridinates (Count = 4)
vt 0.125 0.625
vt 0.25 0.625
vt 0.25 0.75
vt 0.125 0.75

# Normal
vn 0 0 -1

# Mesh description
g example_map_mesh_0005

# Faces
f 1/1/1 2/2/1 3/3/1 4/4/1
f 5/1/1 6/2/1 7/3/1 8/4/1
f 9/1/1 10/2/1 11/3/1 12/4/1
f 13/1/1 14/2/1 15/3/1 16/4/1
f 17/1/1 18/2/1 19/3/1 20/4/1
f 21/1/1 22/2/1 23/3/1 24/4/1
f 25/1/1 26/2/1 27/3/1 28/4/1
f 29/1/1 30/2/1 31/3/1 32/4/1
f 33/1/1 34/2/1 35/3/1 36/4/1
f 37/1/1 38/2/1 39/3/1 40/4/1
f 41/1/1 42/2/1 43/3/1 44/4/1
f 45/1/1 46/2/1 47/3/1 48/4/1
f 49/1/1 50/2/1 51/3/1 52/4/1
f 53/1/1 54/2/1 55/3/1 56/4/1
f 57/1/1 58/2/1 59/3/1 60/4/1
f 61/1/1 62/2/1 63/3/1 64/4/1
f 65/1/1 66/2/1 67/3/1 68/4/1
f 69/1/1 70/2/1 71/3/1 72/4/1
f 73/1/1 74/2/1 75/3/1 76/4/1
f 77/1/1 78/2/1 79/3/1 80/4/1
f 81/1/1 82/2/1 83/3/1 84/4/1
f 85/1/1 86/2/1 87/3/1 88/4/1

