# Tiled2Unity generated file. Do not modify by hand.
# Wavefront file for 'example_map_mesh_0003.obj'

# Vertices (Count = 52)
v -1104 -1376 0
v -1120 -1376 0
v -1120 -1360 0
v -1104 -1360 0
v -1120 -1376 0
v -1136 -1376 0
v -1136 -1360 0
v -1120 -1360 0
v -1136 -1376 0
v -1152 -1376 0
v -1152 -1360 0
v -1136 -1360 0
v -944 -1456 0
v -960 -1456 0
v -960 -1440 0
v -944 -1440 0
v -960 -1456 0
v -976 -1456 0
v -976 -1440 0
v -960 -1440 0
v -976 -1456 0
v -992 -1456 0
v -992 -1440 0
v -976 -1440 0
v -992 -1456 0
v -1008 -1456 0
v -1008 -1440 0
v -992 -1440 0
v -1008 -1456 0
v -1024 -1456 0
v -1024 -1440 0
v -1008 -1440 0
v -1248 -1456 0
v -1264 -1456 0
v -1264 -1440 0
v -1248 -1440 0
v -1264 -1456 0
v -1280 -1456 0
v -1280 -1440 0
v -1264 -1440 0
v -1280 -1456 0
v -1296 -1456 0
v -1296 -1440 0
v -1280 -1440 0
v -1296 -1456 0
v -1312 -1456 0
v -1312 -1440 0
v -1296 -1440 0
v -1312 -1456 0
v -1328 -1456 0
v -1328 -1440 0
v -1312 -1440 0

# Texture cooridinates (Count = 4)
vt 0.125 0.625
vt 0.25 0.625
vt 0.25 0.75
vt 0.125 0.75

# Normal
vn 0 0 -1

# Mesh description
g example_map_mesh_0003

# Faces
f 1/1/1 2/2/1 3/3/1 4/4/1
f 5/1/1 6/2/1 7/3/1 8/4/1
f 9/1/1 10/2/1 11/3/1 12/4/1
f 13/1/1 14/2/1 15/3/1 16/4/1
f 17/1/1 18/2/1 19/3/1 20/4/1
f 21/1/1 22/2/1 23/3/1 24/4/1
f 25/1/1 26/2/1 27/3/1 28/4/1
f 29/1/1 30/2/1 31/3/1 32/4/1
f 33/1/1 34/2/1 35/3/1 36/4/1
f 37/1/1 38/2/1 39/3/1 40/4/1
f 41/1/1 42/2/1 43/3/1 44/4/1
f 45/1/1 46/2/1 47/3/1 48/4/1
f 49/1/1 50/2/1 51/3/1 52/4/1

