# Tiled2Unity generated file. Do not modify by hand.
# Wavefront file for 'final_map_mesh_0006.obj'

# Vertices (Count = 148)
v -2704 -1376 0
v -2720 -1376 0
v -2720 -1360 0
v -2704 -1360 0
v -2720 -1376 0
v -2736 -1376 0
v -2736 -1360 0
v -2720 -1360 0
v -2736 -1376 0
v -2752 -1376 0
v -2752 -1360 0
v -2736 -1360 0
v -5088 -1376 0
v -5104 -1376 0
v -5104 -1360 0
v -5088 -1360 0
v -5104 -1376 0
v -5120 -1376 0
v -5120 -1360 0
v -5104 -1360 0
v -6272 -1376 0
v -6288 -1376 0
v -6288 -1360 0
v -6272 -1360 0
v -6288 -1376 0
v -6304 -1376 0
v -6304 -1360 0
v -6288 -1360 0
v -6304 -1376 0
v -6320 -1376 0
v -6320 -1360 0
v -6304 -1360 0
v -2544 -1456 0
v -2560 -1456 0
v -2560 -1440 0
v -2544 -1440 0
v -2560 -1456 0
v -2576 -1456 0
v -2576 -1440 0
v -2560 -1440 0
v -2576 -1456 0
v -2592 -1456 0
v -2592 -1440 0
v -2576 -1440 0
v -2592 -1456 0
v -2608 -1456 0
v -2608 -1440 0
v -2592 -1440 0
v -2608 -1456 0
v -2624 -1456 0
v -2624 -1440 0
v -2608 -1440 0
v -2848 -1456 0
v -2864 -1456 0
v -2864 -1440 0
v -2848 -1440 0
v -2864 -1456 0
v -2880 -1456 0
v -2880 -1440 0
v -2864 -1440 0
v -2880 -1456 0
v -2896 -1456 0
v -2896 -1440 0
v -2880 -1440 0
v -2896 -1456 0
v -2912 -1456 0
v -2912 -1440 0
v -2896 -1440 0
v -2912 -1456 0
v -2928 -1456 0
v -2928 -1440 0
v -2912 -1440 0
v -9696 -1520 0
v -9712 -1520 0
v -9712 -1504 0
v -9696 -1504 0
v -10512 -1584 0
v -10528 -1584 0
v -10528 -1568 0
v -10512 -1568 0
v -10528 -1584 0
v -10544 -1584 0
v -10544 -1568 0
v -10528 -1568 0
v -10544 -1584 0
v -10560 -1584 0
v -10560 -1568 0
v -10544 -1568 0
v -10800 -1584 0
v -10816 -1584 0
v -10816 -1568 0
v -10800 -1568 0
v -10816 -1584 0
v -10832 -1584 0
v -10832 -1568 0
v -10816 -1568 0
v -10832 -1584 0
v -10848 -1584 0
v -10848 -1568 0
v -10832 -1568 0
v -10288 -1776 0
v -10304 -1776 0
v -10304 -1760 0
v -10288 -1760 0
v -10304 -1776 0
v -10320 -1776 0
v -10320 -1760 0
v -10304 -1760 0
v -10480 -1776 0
v -10496 -1776 0
v -10496 -1760 0
v -10480 -1760 0
v -10496 -1776 0
v -10512 -1776 0
v -10512 -1760 0
v -10496 -1760 0
v -10640 -1776 0
v -10656 -1776 0
v -10656 -1760 0
v -10640 -1760 0
v -10656 -1776 0
v -10672 -1776 0
v -10672 -1760 0
v -10656 -1760 0
v -10800 -1776 0
v -10816 -1776 0
v -10816 -1760 0
v -10800 -1760 0
v -10816 -1776 0
v -10832 -1776 0
v -10832 -1760 0
v -10816 -1760 0
v -10944 -1776 0
v -10960 -1776 0
v -10960 -1760 0
v -10944 -1760 0
v -10960 -1776 0
v -10976 -1776 0
v -10976 -1760 0
v -10960 -1760 0
v -11056 -1776 0
v -11072 -1776 0
v -11072 -1760 0
v -11056 -1760 0
v -11072 -1776 0
v -11088 -1776 0
v -11088 -1760 0
v -11072 -1760 0

# Texture cooridinates (Count = 4)
vt 0.125 0.625
vt 0.25 0.625
vt 0.25 0.75
vt 0.125 0.75

# Normal
vn 0 0 -1

# Mesh description
g final_map_mesh_0006

# Faces
f 1/1/1 2/2/1 3/3/1 4/4/1
f 5/1/1 6/2/1 7/3/1 8/4/1
f 9/1/1 10/2/1 11/3/1 12/4/1
f 13/1/1 14/2/1 15/3/1 16/4/1
f 17/1/1 18/2/1 19/3/1 20/4/1
f 21/1/1 22/2/1 23/3/1 24/4/1
f 25/1/1 26/2/1 27/3/1 28/4/1
f 29/1/1 30/2/1 31/3/1 32/4/1
f 33/1/1 34/2/1 35/3/1 36/4/1
f 37/1/1 38/2/1 39/3/1 40/4/1
f 41/1/1 42/2/1 43/3/1 44/4/1
f 45/1/1 46/2/1 47/3/1 48/4/1
f 49/1/1 50/2/1 51/3/1 52/4/1
f 53/1/1 54/2/1 55/3/1 56/4/1
f 57/1/1 58/2/1 59/3/1 60/4/1
f 61/1/1 62/2/1 63/3/1 64/4/1
f 65/1/1 66/2/1 67/3/1 68/4/1
f 69/1/1 70/2/1 71/3/1 72/4/1
f 73/1/1 74/2/1 75/3/1 76/4/1
f 77/1/1 78/2/1 79/3/1 80/4/1
f 81/1/1 82/2/1 83/3/1 84/4/1
f 85/1/1 86/2/1 87/3/1 88/4/1
f 89/1/1 90/2/1 91/3/1 92/4/1
f 93/1/1 94/2/1 95/3/1 96/4/1
f 97/1/1 98/2/1 99/3/1 100/4/1
f 101/1/1 102/2/1 103/3/1 104/4/1
f 105/1/1 106/2/1 107/3/1 108/4/1
f 109/1/1 110/2/1 111/3/1 112/4/1
f 113/1/1 114/2/1 115/3/1 116/4/1
f 117/1/1 118/2/1 119/3/1 120/4/1
f 121/1/1 122/2/1 123/3/1 124/4/1
f 125/1/1 126/2/1 127/3/1 128/4/1
f 129/1/1 130/2/1 131/3/1 132/4/1
f 133/1/1 134/2/1 135/3/1 136/4/1
f 137/1/1 138/2/1 139/3/1 140/4/1
f 141/1/1 142/2/1 143/3/1 144/4/1
f 145/1/1 146/2/1 147/3/1 148/4/1

